<svg xmlns="http://www.w3.org/2000/svg" width="32" height="32" viewBox="0 0 32 32">
  <path fill="#000000" d="M31.09,26.934 L23.532,19.376 C24.672,17.506 25.328,15.306 25.328,12.956 C25.328,6.122 19.406,0.202 12.572,0.202 C5.738,0.2 0.2,5.74 0.2,12.574 C0.2,19.406 6.122,25.328 12.954,25.328 C15.228,25.328 17.354,24.71 19.184,23.64 L26.782,31.242 C27.526,31.984 28.732,31.984 29.474,31.242 L31.36,29.356 C32.102,28.614 31.832,27.676 31.09,26.934 Z M4.008,12.574 C4.008,7.842 7.842,4.008 12.572,4.008 C17.304,4.008 21.52,8.222 21.52,12.956 C21.52,17.686 17.684,21.522 12.954,21.522 C8.222,21.52 4.008,17.304 4.008,12.574 Z"/>
</svg>
