<?xml version="1.0" encoding="UTF-8"?>
<svg width="58px" height="50px" viewBox="0 0 58 50" version="1.1" xmlns="http://www.w3.org/2000/svg" xmlns:xlink="http://www.w3.org/1999/xlink">
    <!-- Generator: sketchtool 42 (36781) - http://www.bohemiancoding.com/sketch -->
    <title>5572EDBB-9554-4D47-9424-D029AA1B8DF3</title>
    <desc>Created with sketchtool.</desc>
    <defs></defs>
    <g id="Symbols" stroke="none" stroke-width="1" fill="none" fill-rule="evenodd">
        <g id="Footer" transform="translate(-569.000000, -401.000000)" fill="#FFFFFF">
            <g id="Group-3-Copy" transform="translate(569.000000, 401.000000)">
                <g id="vimeo_icon_dark">
                    <path d="M57.4431034,11.7149425 C57.1873563,17.3201149 53.2798851,24.9954023 45.7224138,34.7367816 C37.9086207,44.9126437 31.2977011,50 25.8896552,50 C22.5408046,50 19.7045977,46.9022989 17.3896552,40.7045977 C15.8425287,35.0235632 14.2971264,29.3431034 12.7505747,23.662069 C11.0304598,17.4678161 9.1862069,14.3666667 7.21436782,14.3666667 C6.78448276,14.3666667 5.27988506,15.2729885 2.70402299,17.0787356 L0,13.5885057 C2.8362069,11.0913793 5.63448276,8.59482759 8.38735632,6.09482759 C12.1701149,2.81954023 15.0097701,1.09712644 16.9022989,0.922988506 C21.3752874,0.492528736 24.1281609,3.55574713 25.1614943,10.1132184 C26.2781609,17.187931 27.0505747,21.5885057 27.4850575,23.3109195 C28.7741379,29.1804598 30.1925287,32.1114943 31.7425287,32.1114943 C32.9454023,32.1114943 34.7522989,30.208046 37.1614943,26.4011494 C39.5683908,22.5931034 40.8574713,19.695977 41.0316092,17.7057471 C41.3741379,14.4195402 40.0844828,12.7724138 37.1614943,12.7724138 C35.7856322,12.7724138 34.3672414,13.0896552 32.908046,13.7166667 C35.7321839,4.44712644 41.1287356,-0.0545977011 49.0942529,0.202298851 C54.9994253,0.375862069 57.7833333,4.21321839 57.4431034,11.7149425" id="Fill-1"></path>
                </g>
            </g>
        </g>
    </g>
</svg>